<?xml version="1.0" encoding="UTF-8"?>
<svg width="118px" height="28px" viewBox="0 0 118 28" version="1.1" xmlns="http://www.w3.org/2000/svg" xmlns:xlink="http://www.w3.org/1999/xlink">
    <title>E2D94429-45D4-4A1A-8B62-1F4D6477C1C1@1.00x</title>
    <g id="Symbols" stroke="none" stroke-width="1" fill="none" fill-rule="evenodd">
        <g id="menu/mobile/white" transform="translate(-103.000000, -26.000000)" fill="#FFFFFF">
            <g id="menu/menu-gray" transform="translate(16.000000, 26.000000)">
                <g id="logo" transform="translate(87.000000, 0.000000)">
                    <path d="M9.46666192,5.27300478 L13.5330951,5.27300478 L13.5330951,18.3500566 L9.46666192,18.3500566 L9.46666192,16.4283393 C8.62642008,17.8032334 7.2868093,18.4906701 5.44778942,18.4906701 C3.92584192,18.4906701 2.69324147,17.9907161 1.7499511,16.9907932 C0.806660725,15.9908702 0.335022613,14.6316204 0.335022613,12.9130028 L0.335022613,5.27300478 L4.37767543,5.27300478 L4.37767543,12.3739845 C4.37767543,13.2176695 4.60358613,13.8699532 5.05541429,14.3308552 C5.50724245,14.7917572 6.12948769,15.0222047 6.92216868,15.0222047 C7.71484967,15.0222047 8.33709491,14.7917572 8.78892307,14.3308552 C9.24075123,13.8699532 9.46666192,13.2176695 9.46666192,12.3739845 L9.46666192,5.27300478 Z M26.9689706,11.8349663 C26.9689706,10.8037957 26.675683,10.0069941 26.0890991,9.44453744 C25.5025152,8.88208079 24.8287464,8.60085668 24.0677727,8.60085668 C23.306799,8.60085668 22.6330302,8.8781749 22.0464463,9.43281965 C21.4598624,9.98746441 21.1665748,10.7803602 21.1665748,11.8115307 C21.1665748,12.8427012 21.4598624,13.6395029 22.0464463,14.2019595 C22.6330302,14.7644162 23.306799,15.0456403 24.0677727,15.0456403 C24.8287464,15.0456403 25.5025152,14.7683221 26.0890991,14.2136773 C26.675683,13.6590326 26.9689706,12.8661368 26.9689706,11.8349663 Z M21.1665748,6.98380188 C22.0702311,5.749522 23.3662451,5.13239132 25.0546556,5.13239132 C26.7430661,5.13239132 28.1738338,5.76123967 29.3470017,7.01895525 C30.5201695,8.27667082 31.1067447,9.88199178 31.1067447,11.8349663 C31.1067447,13.7879408 30.5201695,15.3893558 29.3470017,16.6392595 C28.1738338,17.8891632 26.7549561,18.5141057 25.0903261,18.5141057 C23.425696,18.5141057 22.117792,17.8266689 21.1665748,16.4517749 L21.1665748,18.3500566 L17.1001417,18.3500566 L17.1001417,1.0077298 L21.1665748,1.0077298 L21.1665748,6.98380188 Z M39.3347322,18.5141057 C37.4005906,18.5141057 35.8152524,17.9008809 34.57867,16.6744129 C33.3420877,15.4479449 32.7238058,13.8191886 32.7238058,11.7880951 C32.7238058,9.75700164 33.3381243,8.13996302 34.5667799,6.93693073 C35.7954354,5.73389844 37.3847369,5.13239132 39.3347322,5.13239132 C41.2847274,5.13239132 42.9017724,5.72608666 44.1859156,6.91349515 C45.4700588,8.10090364 46.1121207,9.74918939 46.1121207,11.8584019 C46.1121207,12.3114919 46.080414,12.7333281 46.0169995,13.123923 L36.8853602,13.123923 C36.9646283,13.7020034 37.2262091,14.1746162 37.6701104,14.5417754 C38.1140118,14.9089346 38.5935766,15.0925114 39.1088192,15.0925114 C39.6240619,15.0925114 40.0085064,15.0417349 40.2621643,14.9401802 C40.5158222,14.8386255 40.7020994,14.7370724 40.8210016,14.6355177 C40.9399037,14.533963 41.0944742,14.3660097 41.2847177,14.1316528 L45.6840751,14.1316528 C45.3035883,15.4440517 44.5426259,16.502548 43.4011653,17.3071735 C42.2597047,18.1117989 40.9042405,18.5141057 39.3347322,18.5141057 Z M41.0706949,9.12815716 C40.5950863,8.74537415 40.0322912,8.55398553 39.3822928,8.55398553 C38.7322944,8.55398553 38.1853527,8.74537415 37.7414514,9.12815716 C37.29755,9.51094016 37.0201158,10.0069882 36.9091405,10.6163163 L41.8792254,10.6163163 C41.8158109,10.0069882 41.5463034,9.51094016 41.0706949,9.12815716 Z M52.794388,5.27300478 L52.794388,7.71030476 C53.7456052,5.9916872 55.0138758,5.13239132 56.5992377,5.13239132 L56.5992377,9.21018167 L55.6004647,9.21018167 C54.6651011,9.21018167 53.963589,9.42891154 53.4959072,9.86637782 C53.0282254,10.3038441 52.794388,11.0693986 52.794388,12.1630643 L52.794388,18.3500566 L48.7279549,18.3500566 L48.7279549,5.27300478 L52.794388,5.27300478 Z M57.9071548,9.21018167 C57.9071548,8.05402077 58.4065364,7.08535995 59.4053144,6.30417015 C60.4040925,5.52298036 61.7555933,5.13239132 63.4598574,5.13239132 C65.1641215,5.13239132 66.5394024,5.51516857 67.5857413,6.28073458 C68.6320802,7.04630058 69.1869486,8.09307921 69.250363,9.42110187 L65.0888087,9.42110187 C65.0412478,8.96801178 64.882714,8.65944644 64.6132025,8.49539658 C64.3436909,8.33134673 63.9394297,8.24932303 63.4004066,8.24932303 C62.3382141,8.24932303 61.8071258,8.56960604 61.8071258,9.21018167 C61.8071258,9.78826213 62.4571145,10.1866629 63.7571113,10.4053961 C65.0729617,10.6241292 66.269892,10.9600358 67.3479382,11.4131259 C67.9028149,11.631859 68.3665263,11.9951068 68.7390864,12.5028802 C69.1116464,13.0106536 69.2979237,13.6316902 69.2979237,14.3660086 C69.2979237,15.5846647 68.7668354,16.5806667 67.7046429,17.3540446 C66.6424503,18.1274225 65.3028396,18.5141057 63.6857703,18.5141057 C62.0687011,18.5141057 60.7211637,18.1508578 59.6431175,17.4243513 C58.5650714,16.6978448 57.9784962,15.623725 57.8833745,14.2019595 L62.0449289,14.2019595 C62.1559042,14.9987731 62.726626,15.3971739 63.7571113,15.3971739 C64.2327199,15.3971739 64.6250911,15.287809 64.9342367,15.0690759 C65.2433822,14.8503427 65.3979527,14.5691186 65.3979527,14.2253951 C65.3979527,13.8816716 65.1403353,13.6082593 64.6250926,13.4051499 C64.10985,13.2020406 63.4876047,13.0301814 62.7583382,12.8895672 C62.0290717,12.7489531 61.2958528,12.573188 60.5586595,12.3622668 C59.8214662,12.1513455 59.1952576,11.7841918 58.6800149,11.2607946 C58.1647723,10.7373975 57.9071548,10.0538667 57.9071548,9.21018167 Z M77.6448127,14.951898 L79.0954117,14.951898 L79.0954117,18.3500566 L77.0265246,18.3500566 C75.5362844,18.3500566 74.3829509,18.0258677 73.5664894,17.3774802 C72.750028,16.7290927 72.3418034,15.6159139 72.3418034,14.0379105 L72.3418034,8.60085668 L71.1052273,8.60085668 L71.1052273,5.27300478 L72.3418034,5.27300478 L72.3418034,2.08576633 L76.4082366,2.08576633 L76.4082366,5.27300478 L79.0716314,5.27300478 L79.0716314,8.60085668 L76.4082366,8.60085668 L76.4082366,14.0379105 C76.4082366,14.6472385 76.8204245,14.951898 77.6448127,14.951898 Z M90.8904458,5.27300478 L94.9568789,5.27300478 L94.9568789,18.3500566 L90.8904458,18.3500566 L90.8904458,16.4283393 C90.0502039,17.8032334 88.7105932,18.4906701 86.8715733,18.4906701 C85.3496258,18.4906701 84.1170253,17.9907161 83.173735,16.9907932 C82.2304446,15.9908702 81.7588065,14.6316204 81.7588065,12.9130028 L81.7588065,5.27300478 L85.8014593,5.27300478 L85.8014593,12.3739845 C85.8014593,13.2176695 86.02737,13.8699532 86.4791982,14.3308552 C86.9310263,14.7917572 87.5532716,15.0222047 88.3459525,15.0222047 C89.1386335,15.0222047 89.7608788,14.7917572 90.2127069,14.3308552 C90.6645351,13.8699532 90.8904458,13.2176695 90.8904458,12.3739845 L90.8904458,5.27300478 Z M104.326321,5.27300478 L104.326321,8.60085668 L102.637919,8.60085668 L102.637919,18.3500566 L98.5714862,18.3500566 L98.5714862,8.60085668 L97.33491,8.60085668 L97.33491,5.27300478 L98.5714862,5.27300478 L98.5714862,4.78085766 C98.5714862,3.12473529 99.0193442,1.91390926 99.9150737,1.14834326 C100.810803,0.38277726 102.217791,0 104.136079,0 L104.136079,3.39815863 C103.597056,3.39815863 103.212611,3.49971178 102.982734,3.70282113 C102.752856,3.90593048 102.637919,4.2652724 102.637919,4.78085766 L102.637919,5.27300478 L104.326321,5.27300478 Z M112.316506,5.27300478 L112.316506,8.60085668 L110.628104,8.60085668 L110.628104,18.3500566 L106.561671,18.3500566 L106.561671,8.60085668 L105.325094,8.60085668 L105.325094,5.27300478 L106.561671,5.27300478 L106.561671,4.78085766 C106.561671,3.12473529 107.009529,1.91390926 107.905258,1.14834326 C108.800988,0.38277726 110.207975,0 112.126263,0 L112.126263,3.39815863 C111.58724,3.39815863 111.202796,3.49971178 110.972918,3.70282113 C110.743041,3.90593048 110.628104,4.2652724 110.628104,4.78085766 L110.628104,5.27300478 L112.316506,5.27300478 Z M117.502712,24.5535916 L117.502712,28 L0,28 L0,24.5535916 L117.502712,24.5535916 Z M115.776541,13.9676038 C116.402759,13.9676038 116.929884,14.1785218 117.357932,14.6003643 C117.785979,15.0222068 118,15.5416902 118,16.1588302 C118,16.7759701 117.785979,17.2954536 117.357932,17.717296 C116.929884,18.1391385 116.402759,18.3500566 115.776541,18.3500566 C115.150323,18.3500566 114.623198,18.1391385 114.19515,17.717296 C113.767103,17.2954536 113.553082,16.7759701 113.553082,16.1588302 C113.553082,15.5416902 113.767103,15.0222068 114.19515,14.6003643 C114.623198,14.1785218 115.150323,13.9676038 115.776541,13.9676038 Z"></path>
                </g>
            </g>
        </g>
    </g>
</svg>